<?xml version="1.0" encoding="UTF-8"?>
<svg width="240px" height="57px" viewBox="0 0 240 57" version="1.1" xmlns="http://www.w3.org/2000/svg" xmlns:xlink="http://www.w3.org/1999/xlink">
    <title>FBD0FB05-D96C-4D72-BA2C-BCFF432FA94D</title>
    <g id="Page-1" stroke="none" stroke-width="1" fill="none" fill-rule="evenodd">
        <g id="Home" transform="translate(-162.000000, -32.000000)" fill-rule="nonzero">
            <g id="logo" transform="translate(162.000000, 32.000000)">
                <g id="Group" transform="translate(72.100766, 21.117435)">
                    <path d="M12.9333104,11.8223864 C12.9333104,12.8199039 12.6798052,13.716057 12.1727949,14.5108457 C11.6657846,15.3056344 10.9238367,15.9280269 9.94695139,16.3780233 C8.97006603,16.8280196 7.81167249,17.0530178 6.4721497,17.0530178 C4.86623808,17.0530178 3.54149363,16.7454691 2.49791633,16.1307557 C1.75786314,15.6884385 1.15611995,15.0982982 0.693823543,14.3595671 C0.231148204,13.6208359 2.27382291e-13,12.9024544 2.27382291e-13,12.2051904 C2.27382291e-13,11.800117 0.138688922,11.4537887 0.416445698,11.1650539 C0.694202474,10.876319 1.04736661,10.7315677 1.47669598,10.7315677 C1.82455508,10.7315677 2.11860591,10.8440667 2.3592274,11.0690649 C2.59946996,11.2940631 2.80485083,11.6277208 2.97536999,12.070038 C3.18226658,12.5949057 3.40659402,13.0337673 3.64683658,13.3862388 C3.88707914,13.7387103 4.22584388,14.0297489 4.66275188,14.2582027 C5.09928095,14.4870404 5.67298321,14.6018432 6.38347974,14.6018432 C7.3603651,14.6018432 8.15422655,14.3707018 8.76468517,13.9095707 C9.37514378,13.4484397 9.68056256,12.8732737 9.68056256,12.183305 C9.68056256,11.6357838 9.51572736,11.1911629 9.18643591,10.8498261 C8.85714445,10.5084893 8.43160439,10.2485511 7.90981574,10.0684758 C7.38802709,9.88763258 6.69041424,9.69642254 5.8173561,9.49484568 C4.64797355,9.21647765 3.66919354,8.89280282 2.88101605,8.52151745 C2.09283857,8.15023209 1.4672227,7.6441782 1.00492629,7.00297183 C0.54225095,6.36176546 0.311102746,5.56505695 0.311102746,4.61246234 C0.311102746,3.70517453 0.555513552,2.89886712 1.04395623,2.19392407 C1.53239891,1.48898102 2.23910612,0.947219228 3.1644568,0.568638702 C4.08942855,0.190058175 5.17734083,0.000767911819 6.42819365,0.000767911819 C7.42743597,0.000767911819 8.29139975,0.126321494 9.02046392,0.377428659 C9.74914916,0.628535824 10.3543027,0.962193509 10.8355457,1.37840171 C11.3167887,1.79460992 11.6680582,2.23155175 11.890112,2.68884323 C12.1121659,3.14613472 12.2231928,3.59267544 12.2231928,4.02731353 C12.2231928,4.4247079 12.0845039,4.78293876 11.8067471,5.10162217 C11.5289903,5.42030557 11.1830259,5.57964727 10.7688538,5.57964727 C10.391438,5.57964727 10.1045869,5.48404225 9.90830038,5.29283221 C9.71201387,5.10162217 9.49905438,4.7886981 9.26980083,4.35367606 C8.97385534,3.73128353 8.61841761,3.2455793 8.20424551,2.89694734 C7.78969446,2.54831537 7.12353292,2.37399939 6.2061398,2.37399939 C5.3550597,2.37399939 4.66843585,2.56328965 4.1466472,2.94187018 C3.62485855,3.3204507 3.36415369,3.77620637 3.36415369,4.30875321 C3.36415369,4.63857134 3.45282366,4.92385058 3.63054252,5.16382303 C3.80826139,5.40379547 4.05229326,5.60997979 4.36339601,5.782376 C4.67449876,5.9547722 4.98863295,6.08992468 5.3069354,6.18744948 C5.62485891,6.28497428 6.15081581,6.42742192 6.88329036,6.61479241 C7.80068348,6.83211145 8.63168022,7.07208389 9.37552271,7.33470974 C10.1193652,7.59733558 10.7521808,7.91601898 11.2739694,8.290376 C11.7957581,8.66550092 12.2027305,9.14007042 12.4952656,9.71370055 C12.7874218,10.2865628 12.9333104,10.98997 12.9333104,11.8223864 Z" id="Path" fill="#FFFFFF"></path>
                    <path d="M26.8658631,10.8102786 C26.8658631,11.7252456 26.7252795,12.5687967 26.4441124,13.341316 C26.1625663,14.1138353 25.7559728,14.7773111 25.2228162,15.3325113 C24.6896596,15.8873276 24.0534336,16.3135187 23.3133805,16.6087808 C22.5733273,16.9048108 21.7408148,17.0534017 20.8154641,17.0534017 C19.8976921,17.0534017 19.0723793,16.903275 18.3399048,16.6034054 C17.6074302,16.3035358 16.97272,15.8746571 16.436153,15.3156173 C15.8992071,14.7569614 15.4926136,14.0961733 15.2148568,13.3359406 C14.9371001,12.57494 14.7984111,11.7325407 14.7984111,10.8102786 C14.7984111,9.88033742 14.9389947,9.02910716 15.2201619,8.25697183 C15.501329,7.4848365 15.9045121,6.82520024 16.4300901,6.27767912 C16.9556681,5.73015799 17.591894,5.3085744 18.3395258,5.01216044 C19.0871577,4.71613043 19.9120915,4.56792345 20.8150852,4.56792345 C21.7324783,4.56792345 22.5653697,4.71805021 23.3130015,5.01791978 C24.0606333,5.31778934 24.7006486,5.74551623 25.2334263,6.30033252 C25.7662039,6.85514881 26.1716606,7.51555297 26.4490385,8.28039314 C26.7264163,9.04523331 26.8658631,9.88763258 26.8658631,10.8102786 Z M23.8241801,10.8102786 C23.8241801,9.55781445 23.5521073,8.5829504 23.0083406,7.88568647 C22.4645739,7.18842254 21.7332362,6.83940661 20.8158431,6.83940661 C20.2235732,6.83940661 19.7017845,6.99490876 19.2504771,7.306297 C18.7991697,7.61730129 18.4513106,8.07689651 18.2068998,8.68431476 C17.962489,9.29173301 17.8404731,10.0005156 17.8404731,10.8102786 C17.8404731,11.6127465 17.9605944,12.31385 18.2012158,12.9139731 C18.4414584,13.5137122 18.7855282,13.9736914 19.2338041,14.2923748 C19.6817011,14.6102903 20.2087948,14.7700159 20.8158431,14.7700159 C21.7332362,14.7700159 22.4645739,14.4198481 23.0083406,13.7187446 C23.5521073,13.0176412 23.8241801,12.0473846 23.8241801,10.8102786 Z" id="Shape" fill="#FFFFFF"></path>
                    <path d="M40.1212653,13.2510863 C40.1212653,13.6327385 40.0083437,14.0424195 39.7825005,14.4762897 C39.5566574,14.9113117 39.2125876,15.3259841 38.7499122,15.7195389 C38.2872369,16.1123258 37.7044403,16.4298573 37.0015224,16.6698298 C36.2986045,16.9098022 35.5066377,17.0303644 34.625622,17.0303644 C32.7533215,17.0303644 31.2914039,16.4770839 30.2406269,15.3709069 C29.1898499,14.2647299 28.6642719,12.7822762 28.6642719,10.9223938 C28.6642719,9.66263442 28.9045145,8.54877832 29.3857575,7.58159339 C29.8670004,6.61364054 30.5623397,5.86607838 31.4729121,5.3373711 C32.3834844,4.80866381 33.4710178,4.54450214 34.7366489,4.54450214 C35.5210371,4.54450214 36.2410069,4.66084078 36.8958005,4.89313411 C37.5505941,5.12542743 38.1057287,5.42568096 38.5612043,5.79312676 C39.01668,6.16057257 39.3641602,6.55259155 39.6047816,6.96879976 C39.8454031,7.38500796 39.9655244,7.77280343 39.9655244,8.13295407 C39.9655244,8.50039988 39.8306248,8.81178812 39.5604467,9.06673484 C39.2902685,9.32168157 38.9628717,9.44915493 38.5778773,9.44915493 C38.3262668,9.44915493 38.1170967,9.38388242 37.9507457,9.2525695 C37.7843948,9.12048867 37.5972027,8.90892897 37.3903061,8.61673852 C37.02009,8.04694795 36.6335799,7.61922107 36.2300179,7.33470974 C35.8264558,7.04981445 35.3141405,6.90736681 34.6923139,6.90736681 C33.7968988,6.90736681 33.0750344,7.26175811 32.5274784,7.97054072 C31.9799224,8.67932333 31.7059549,9.64804409 31.7059549,10.8778549 C31.7059549,11.4553246 31.7764362,11.9863356 31.9170198,12.4697361 C32.0576033,12.9535205 32.2610895,13.3658892 32.5274784,13.707226 C32.7938672,14.0485628 33.115959,14.3069651 33.4933747,14.4832009 C33.8707905,14.6594366 34.2853415,14.7473625 34.7366489,14.7473625 C35.3436971,14.7473625 35.8635911,14.6049149 36.2963309,14.3200196 C36.7290706,14.0358922 37.1121704,13.6001023 37.4452511,13.0161053 C37.6301697,12.6713129 37.8302455,12.40024 38.0447207,12.2063423 C38.259196,12.0112927 38.5221744,11.9137679 38.8328982,11.9137679 C39.2031143,11.9137679 39.5100488,12.0562156 39.7544596,12.3411108 C39.9988704,12.6248543 40.1212653,12.9285634 40.1212653,13.2510863 Z" id="Path" fill="#FFFFFF"></path>
                    <path d="M44.2951955,3.1384556 C43.8734448,3.1384556 43.512702,3.00714268 43.2129672,2.7449008 C42.9132324,2.48265891 42.7631755,2.11137355 42.7631755,1.63142866 C42.7631755,1.19640661 42.9166428,0.838559706 43.2239562,0.557120024 C43.5312697,0.275680343 43.8882231,0.13515248 44.2951955,0.13515248 C44.6873896,0.13515248 45.0352487,0.262625842 45.3387728,0.517572566 C45.6422969,0.77251929 45.7938695,1.14380465 45.7938695,1.6310447 C45.7938695,2.10331047 45.6457073,2.47267606 45.3497618,2.73914146 C45.0538164,3.00560686 44.7021679,3.1384556 44.2951955,3.1384556 Z M45.7938695,6.31031537 L45.7938695,15.1850723 C45.7938695,15.8009375 45.6494966,16.2647563 45.3607509,16.580752 C45.0720051,16.8955958 44.7055783,17.0526338 44.2618496,17.0526338 C43.8181208,17.0526338 43.4569991,16.8913723 43.1796212,16.5688494 C42.9022434,16.2463264 42.7631755,15.7851953 42.7631755,15.1850723 L42.7631755,6.3997771 C42.7631755,5.79235885 42.9018645,5.33506736 43.1796212,5.02751868 C43.457378,4.71996999 43.8181208,4.56638763 44.2618496,4.56638763 C44.7055783,4.56638763 45.072384,4.71996999 45.3607509,5.02751868 C45.6491177,5.33506736 45.7938695,5.7631782 45.7938695,6.31031537 Z" id="Shape" fill="#FFFFFF"></path>
                    <path d="M56.5843224,15.3209927 C55.8514689,15.8984623 55.143246,16.3311806 54.4588957,16.6199155 C53.7745455,16.9086503 53.0068303,17.0534017 52.1557502,17.0534017 C51.3781828,17.0534017 50.6953482,16.8975156 50.1072466,16.5861274 C49.5191449,16.2747391 49.0655639,15.8535395 48.7472615,15.3209927 C48.4289591,14.7884458 48.2698078,14.2109761 48.2698078,13.5885836 C48.2698078,12.7481041 48.5324074,12.0316424 49.0579853,11.4391984 C49.5835633,10.8467544 50.3050488,10.4493601 51.2228209,10.2473993 C51.4153181,10.2024764 51.8927717,10.1011121 52.654424,9.94369014 C53.4168341,9.78626822 54.070112,9.64151684 54.6142576,9.51020392 C55.1584032,9.378891 55.7480206,9.21993325 56.3853834,9.03256277 C56.3474902,8.22279976 56.1872022,7.62805205 55.9022457,7.24908757 C55.6172893,6.87012309 55.0272929,6.68121678 54.1318779,6.68121678 C53.362268,6.68121678 52.7825028,6.7898763 52.3940981,7.0075793 C52.0056933,7.2252823 51.6726125,7.55126087 51.3948558,7.98628291 C51.117099,8.42130496 50.9211914,8.70850398 50.8063752,8.84634415 C50.6915589,8.98495224 50.4456324,9.05483221 50.0682166,9.05483221 C49.7279362,9.05483221 49.4335064,8.94386895 49.1856852,8.72347826 C48.937864,8.50231966 48.8139534,8.2189602 48.8139534,7.87378383 C48.8139534,7.33394182 49.0026613,6.8090741 49.3800771,6.29879669 C49.7574928,5.78851929 50.3459734,5.36885548 51.1451399,5.03903735 C51.9443064,4.70921923 52.9393805,4.54411819 54.1318779,4.54411819 C55.4642009,4.54411819 56.5111886,4.70345989 57.2735988,5.02214329 C58.0360089,5.3408267 58.5740916,5.84534476 58.8886047,6.53492958 C59.2031179,7.22451439 59.3607534,8.13986528 59.3607534,9.27906246 C59.3607534,9.99897979 59.3584798,10.6110055 59.3546905,11.1124519 C59.3509011,11.6150502 59.345975,12.1737061 59.3383964,12.7884195 C59.3383964,13.3658892 59.4323714,13.9671641 59.6210793,14.5933962 C59.8097872,15.2203962 59.9037622,15.623166 59.9037622,15.8028573 C59.9037622,16.1177012 59.7578736,16.4041323 59.4657174,16.6629186 C59.1735612,16.9217048 58.8419962,17.0514819 58.472538,17.0514819 C58.1618142,17.0514819 57.8545007,16.902891 57.5502187,16.606861 C57.2466946,16.3123668 56.9249818,15.8831041 56.5843224,15.3209927 Z M56.3846255,10.8774709 C55.9405178,11.042572 55.2944396,11.216504 54.4479067,11.4000349 C53.6006159,11.5839498 53.0136511,11.7187183 52.68777,11.8051084 C52.3622678,11.8922664 52.0511651,12.0600551 51.7552196,12.3111623 C51.4592741,12.5622694 51.3111119,12.9124372 51.3111119,13.3632015 C51.3111119,13.8281721 51.4850415,14.2232627 51.8329006,14.5496252 C52.1807597,14.8759878 52.6362353,15.0384011 53.1985696,15.0384011 C53.7980392,15.0384011 54.3516581,14.9055524 54.8586684,14.6394709 C55.3656788,14.3733895 55.7370316,14.0297489 55.9738638,13.6097012 C56.2478312,13.1447306 56.3846255,12.3798904 56.3846255,11.3147967 L56.3846255,10.8774709 L56.3846255,10.8774709 Z" id="Shape" fill="#FFFFFF"></path>
                    <path d="M62.4350245,15.1858402 L62.4350245,1.86717759 C62.4350245,1.25208022 62.5695452,0.78749357 62.8397233,0.472265769 C63.1106593,0.157037967 63.4748125,0 63.9336985,0 C64.3925845,0 64.7628006,0.155502143 65.0439677,0.466890386 C65.3251349,0.778278628 65.4657185,1.24478506 65.4657185,1.86717759 L65.4657185,15.1858402 C65.4657185,15.8082327 65.3236192,16.275507 65.0386627,16.5857434 C64.7537062,16.8971317 64.3850059,17.0530178 63.9336985,17.0530178 C63.4895908,17.0530178 63.1292269,16.8917563 62.8518491,16.5692333 C62.5744713,16.2467103 62.4350245,15.7859633 62.4350245,15.1858402 Z" id="Path" fill="#FFFFFF"></path>
                    <path d="M81.4407119,16.771962 L76.4672362,16.771962 C75.749161,16.771962 75.2372246,16.6083968 74.9291533,16.2824182 C74.6218399,15.9568236 74.4687515,15.4373313 74.4687515,14.7247091 L74.4687515,2.32830863 C74.4687515,1.60071219 74.6256292,1.07776424 74.9401423,0.759080833 C75.2546554,0.440397428 75.7639393,0.281055726 76.4660994,0.281055726 L81.7393099,0.281055726 C82.5172562,0.281055726 83.1898596,0.329818126 83.7597725,0.427342927 C84.3296855,0.524867728 84.841243,0.712238212 85.2917925,0.989838334 C85.6775448,1.22213166 86.0170674,1.51662584 86.3130128,1.87293693 C86.6089583,2.22924801 86.8348015,2.62280282 86.9901634,3.0539853 C87.1455253,3.48516779 87.2232063,3.94092345 87.2232063,4.42086834 C87.2232063,6.07072688 86.4092614,7.27788426 84.7809929,8.04310839 C86.92044,8.73307716 87.9894057,10.075387 87.9894057,12.070038 C87.9894057,12.9923001 87.7563629,13.8224127 87.2898982,14.5611439 C86.8238125,15.300643 86.1944073,15.8458604 85.4028194,16.1983319 C84.9067981,16.4083558 84.337643,16.5569467 83.6930806,16.6429528 C83.0496549,16.728575 82.2993706,16.771962 81.4407119,16.771962 Z M77.7662133,2.78943968 L77.7662133,7.0528861 L80.7859183,7.0528861 C81.6074417,7.0528861 82.2425309,6.97417514 82.690049,6.81675321 C83.1371881,6.65933129 83.4797422,6.35946173 83.7165743,5.91676056 C83.9014929,5.60191672 83.9939522,5.24944519 83.9939522,4.85934599 C83.9939522,4.02692958 83.701796,3.47403307 83.1171047,3.2002725 C82.5324135,2.92651194 81.6407877,2.78982364 80.4414695,2.78982364 L77.7662133,2.78943968 L77.7662133,2.78943968 Z M81.1963011,9.44915493 L77.7658344,9.44915493 L77.7658344,14.2635781 L81.307328,14.2635781 C83.5350662,14.2635781 84.6487458,13.4499755 84.6487458,11.8227704 C84.6487458,10.9903539 84.36,10.3867753 83.7828873,10.0116503 C83.2057747,9.63652541 82.3437056,9.44915493 81.1963011,9.44915493 Z" id="Shape" fill="#E95E30"></path>
                    <path d="M93.6411688,12.6210147 L93.6411688,15.1858402 C93.6411688,15.8082327 93.4967959,16.275507 93.2080501,16.5857434 C92.9193043,16.8971317 92.5528776,17.0530178 92.1091488,17.0530178 C91.6733776,17.0530178 91.3133927,16.8955958 91.0322255,16.580752 C90.7510584,16.2659081 90.6104748,15.8009375 90.6104748,15.1858402 L90.6104748,6.63667789 C90.6104748,5.25674036 91.1027068,4.56677159 92.0867918,4.56677159 C92.5900128,4.56677159 92.9526503,4.72803307 93.1747041,5.05055603 C93.396758,5.373079 93.5187739,5.84918432 93.5411309,6.47925597 C93.9037683,5.84918432 94.2755001,5.373079 94.6563262,5.05055603 C95.0382891,4.72803307 95.5468152,4.56677159 96.1830411,4.56677159 C96.8188882,4.56677159 97.4376833,4.72803307 98.0371529,5.05055603 C98.6366225,5.373079 98.9363573,5.80042192 98.9363573,6.33296877 C98.9363573,6.70809369 98.8082784,7.0171782 98.5528786,7.2609902 C98.2974788,7.50441825 98.0223746,7.62690018 97.7260501,7.62690018 C97.6150232,7.62690018 97.3463608,7.55702021 96.9208207,7.41879608 C96.4952807,7.280188 96.1201385,7.21069198 95.7942574,7.21069198 C95.3493919,7.21069198 94.9867545,7.3289504 94.7063452,7.56469933 C94.425178,7.80083221 94.2069135,8.15176791 94.0507937,8.61673852 C93.8954318,9.08170912 93.788952,9.63422168 93.7287019,10.275428 C93.6699676,10.9166344 93.6411688,11.6979847 93.6411688,12.6210147 Z" id="Path" fill="#E95E30"></path>
                    <path d="M111.070501,10.8102786 C111.070501,11.7252456 110.929918,12.5687967 110.64875,13.341316 C110.368341,14.1138353 109.961369,14.7773111 109.427454,15.3325113 C108.894677,15.8873276 108.258072,16.3135187 107.518019,16.6087808 C106.777965,16.9048108 105.945453,17.0534017 105.020102,17.0534017 C104.10233,17.0534017 103.277017,16.903275 102.544543,16.6034054 C101.812447,16.3035358 101.177737,15.8746571 100.64117,15.3156173 C100.104603,14.7565775 99.6976306,14.0961733 99.4198739,13.3359406 C99.142496,12.57494 99.0030492,11.7325407 99.0030492,10.8102786 C99.0030492,9.88033742 99.1436328,9.02910716 99.4248,8.25697183 C99.7059671,7.48522045 100.109529,6.82520024 100.634728,6.27767912 C101.159548,5.73015799 101.796532,5.3085744 102.544164,5.01216044 C103.291796,4.71574648 104.11673,4.56792345 105.019723,4.56792345 C105.937495,4.56792345 106.770008,4.71805021 107.51764,5.01791978 C108.265271,5.31778934 108.905287,5.74551623 109.438064,6.30033252 C109.970084,6.85514881 110.37592,7.51555297 110.653298,8.28039314 C110.930675,9.04523331 111.070501,9.88763258 111.070501,10.8102786 Z M108.028818,10.8102786 C108.028818,9.55781445 107.757124,8.5829504 107.213358,7.88568647 C106.669591,7.18842254 105.939011,6.83940661 105.021239,6.83940661 C104.429348,6.83940661 103.907559,6.99490876 103.455873,7.306297 C103.003808,7.61730129 102.656707,8.07689651 102.412296,8.68431476 C102.167506,9.29173301 102.045111,10.0005156 102.045111,10.8102786 C102.045111,11.6127465 102.165611,12.31385 102.406233,12.9139731 C102.646854,13.5140961 102.990924,13.9736914 103.438821,14.2923748 C103.886718,14.6102903 104.413433,14.7700159 105.021239,14.7700159 C105.939011,14.7700159 106.669591,14.4198481 107.213358,13.7187446 C107.757124,13.0176412 108.028818,12.0473846 108.028818,10.8102786 Z" id="Shape" fill="#E95E30"></path>
                    <path d="M113.62412,4.83669259 L113.957201,4.83669259 L113.957201,2.99178445 C113.957201,2.49686528 113.970464,2.10868585 113.99661,1.82763013 C114.022756,1.5465744 114.095132,1.30468218 114.212601,1.10195346 C114.330828,0.891929577 114.501347,0.721453154 114.724159,0.590140233 C114.946212,0.458827312 115.193276,0.393170851 115.468001,0.393170851 C115.852995,0.393170851 116.200855,0.539458053 116.511578,0.832032456 C116.718854,1.02708206 116.849964,1.26513472 116.905288,1.54619045 C116.960612,1.82724617 116.989032,2.22656032 116.989032,2.74413288 L116.989032,4.83630863 L118.099301,4.83630863 C118.528631,4.83630863 118.855648,4.93959277 119.08225,5.1457771 C119.308093,5.35196142 119.420635,5.61650704 119.420635,5.93864605 C119.420635,6.3510147 119.259968,6.63974954 118.938256,6.80485058 C118.616543,6.96995162 118.156141,7.05250214 117.556671,7.05250214 L116.990548,7.05250214 L116.990548,12.6993417 C116.990548,13.1792866 117.006842,13.5490361 117.040188,13.8078224 C117.073534,14.0666087 117.162204,14.2766326 117.306577,14.4378941 C117.450949,14.5991555 117.686266,14.6801702 118.011768,14.6801702 C118.189487,14.6801702 118.430108,14.6479179 118.732496,14.5841813 C119.03602,14.5204446 119.27361,14.4889602 119.442992,14.4889602 C119.687782,14.4889602 119.907941,14.5880208 120.103849,14.786526 C120.299756,14.9850312 120.397521,15.2303791 120.397521,15.5237214 C120.397521,16.0178726 120.131132,16.3964532 119.598354,16.6598469 C119.065577,16.9224727 118.299377,17.0526338 117.301272,17.0526338 C116.353943,17.0526338 115.635489,16.8913723 115.146667,16.5688494 C114.657846,16.2463264 114.338406,15.8001696 114.186834,15.2303791 C114.035261,14.6613564 113.958717,13.8992039 113.958717,12.9477612 L113.958717,7.0528861 L113.558944,7.0528861 C113.122415,7.0528861 112.789334,6.94806614 112.559702,6.73804225 C112.330069,6.52801837 112.215632,6.26193693 112.215632,5.93941396 C112.215632,5.616891 112.335374,5.35272933 112.575996,5.14654501 C112.816617,4.93997673 113.165234,4.83669259 113.62412,4.83669259 Z" id="Path" fill="#E95E30"></path>
                    <path d="M124.470276,1.86717759 L124.470276,6.42281445 C124.855271,5.97281813 125.231171,5.61650704 125.597597,5.35426516 C125.964024,5.09202327 126.368723,4.89505389 126.812831,4.76374097 C127.256938,4.63242805 127.73515,4.56677159 128.244813,4.56677159 C129.014423,4.56677159 129.697636,4.73187263 130.293316,5.06169075 C130.888239,5.39150888 131.356977,5.87145377 131.697257,6.50152541 C131.911733,6.86897122 132.056106,7.27942009 132.130376,7.73325597 C132.205026,8.18709186 132.241403,8.71042376 132.241403,9.30286773 L132.241403,15.1850723 C132.241403,15.8009375 132.103093,16.2647563 131.825336,16.580752 C131.547201,16.8955958 131.179258,17.0526338 130.720372,17.0526338 C129.72113,17.0526338 129.221698,16.4302413 129.221698,15.1854562 L129.221698,9.9997477 C129.221698,9.01720453 129.077325,8.26234721 128.788579,7.73363993 C128.499834,7.20493264 127.952278,6.94077097 127.145532,6.94077097 C126.605176,6.94077097 126.118249,7.09627312 125.685131,7.40766136 C125.252012,7.71943356 124.928783,8.14447275 124.714308,8.68469871 C124.551368,9.1419902 124.469897,9.95597673 124.469897,11.1255064 L124.469897,15.1854562 C124.469897,15.7928745 124.334619,16.2563092 124.064441,16.5749927 C123.794262,16.8936761 123.41912,17.0526338 122.937877,17.0526338 C121.937877,17.0526338 121.439203,16.4302413 121.439203,15.1854562 L121.439203,1.86717759 C121.439203,1.24478506 121.570314,0.777894672 121.832913,0.466890386 C122.095513,0.155886099 122.464213,8.58505755e-14 122.937877,8.58505755e-14 C123.41912,8.58505755e-14 123.794262,0.157421923 124.064441,0.472265769 C124.334619,0.786725658 124.470276,1.25208022 124.470276,1.86717759 Z" id="Path" fill="#E95E30"></path>
                    <path d="M143.698017,11.5636001 L137.769634,11.5636001 C137.777213,12.2608641 137.915523,12.8759614 138.185701,13.4085083 C138.456637,13.9410551 138.814727,14.342289 139.263382,14.61221 C139.711279,14.882131 140.204648,15.0172835 140.745004,15.0172835 C141.107642,15.0172835 141.438449,14.9746644 141.738184,14.8882743 C142.037919,14.8011164 142.328938,14.6671157 142.610105,14.4832009 C142.891272,14.298902 143.150461,14.1023166 143.387294,13.8922927 C143.624126,13.6822688 143.931439,13.3973735 144.308855,13.0372229 C144.464217,12.9020704 144.686271,12.8348781 144.975017,12.8348781 C145.28574,12.8348781 145.537351,12.9212682 145.729848,13.0936644 C145.922345,13.2660606 146.019352,13.5098726 146.019352,13.8247165 C146.019352,14.1023166 145.912114,14.4259914 145.696502,14.7972768 C145.482027,15.1685622 145.158419,15.5252572 144.72568,15.8658261 C144.292561,16.2071629 143.748794,16.4905224 143.093622,16.7155205 C142.438449,16.9405187 141.685133,17.0530178 140.834053,17.0530178 C138.887482,17.0530178 137.37403,16.4905224 136.294454,15.3655315 C135.213742,14.2397728 134.673764,12.7146999 134.673764,10.7872413 C134.673764,9.87995346 134.807148,9.03755419 135.073537,8.2615793 C135.339926,7.48560441 135.728709,6.81982486 136.23913,6.26500857 C136.74993,5.71019228 137.378956,5.28438518 138.126209,4.98835517 C138.873083,4.69232517 139.702564,4.54411819 140.612378,4.54411819 C141.796539,4.54411819 142.812834,4.79714513 143.660124,5.30358298 C144.507415,5.81002082 145.141746,6.46389773 145.563497,7.26598163 C145.985248,8.06844948 146.196313,8.88589161 146.196313,9.71830802 C146.196313,10.4908273 145.978048,10.9907379 145.54114,11.2203435 C145.104232,11.4499492 144.489984,11.5636001 143.698017,11.5636001 Z M137.769634,9.82005634 L143.264899,9.82005634 C143.191765,8.77032088 142.911735,7.98436314 142.427081,7.46333497 C141.942428,6.94192284 141.303549,6.68160073 140.511583,6.68160073 C139.756751,6.68160073 139.137198,6.9457624 138.652545,7.47408573 C138.167891,8.00317697 137.873462,8.78529516 137.769634,9.82005634 Z" id="Shape" fill="#E95E30"></path>
                    <path d="M151.757511,12.6210147 L151.757511,15.1858402 C151.757511,15.8082327 151.613138,16.275507 151.324392,16.5857434 C151.035647,16.8971317 150.66922,17.0530178 150.225491,17.0530178 C149.788962,17.0530178 149.429735,16.8955958 149.148568,16.580752 C148.867401,16.2659081 148.726817,15.8009375 148.726817,15.1858402 L148.726817,6.63667789 C148.726817,5.25674036 149.219049,4.56677159 150.203134,4.56677159 C150.706355,4.56677159 151.068993,4.72803307 151.291046,5.05055603 C151.5131,5.373079 151.635116,5.84918432 151.657473,6.47925597 C152.020111,5.84918432 152.391842,5.373079 152.772669,5.05055603 C153.153495,4.72803307 153.663158,4.56677159 154.299384,4.56677159 C154.935231,4.56677159 155.554026,4.72803307 156.153495,5.05055603 C156.752965,5.373079 157.0527,5.80042192 157.0527,6.33296877 C157.0527,6.70809369 156.924621,7.0171782 156.669221,7.2609902 C156.413821,7.50441825 156.138717,7.62690018 155.842393,7.62690018 C155.731366,7.62690018 155.462703,7.55702021 155.037163,7.41879608 C154.611623,7.280188 154.236481,7.21069198 153.909842,7.21069198 C153.465734,7.21069198 153.103097,7.3289504 152.822688,7.56469933 C152.54152,7.80083221 152.323256,8.15176791 152.167136,8.61673852 C152.011774,9.08170912 151.904537,9.63422168 151.845044,10.275428 C151.785552,10.9166344 151.757511,11.6979847 151.757511,12.6210147 Z" id="Path" fill="#E95E30"></path>
                    <path d="M167.899234,13.0372229 C167.899234,13.8846136 167.696506,14.6099063 167.289534,15.213485 C166.882561,15.8170637 166.280818,16.275507 165.485062,16.5857434 C164.689306,16.8971317 163.722273,17.0530178 162.582447,17.0530178 C161.494534,17.0530178 160.561984,16.8844611 159.784038,16.5469639 C159.006849,16.2094666 158.434284,15.7871151 158.06331,15.2810612 C157.693094,14.7757753 157.508175,14.2670337 157.508175,13.7571402 C157.508175,13.419643 157.626402,13.1309081 157.863992,12.8909357 C158.100824,12.6509633 158.400559,12.5307851 158.763196,12.5307851 C159.081499,12.5307851 159.324773,12.6087281 159.49605,12.76615 C159.66619,12.923572 159.829131,13.1447306 159.984493,13.4303938 C160.295216,13.9779149 160.666948,14.386444 161.099688,14.6555971 C161.532807,14.9255181 162.122424,15.0614385 162.870814,15.0614385 C163.477862,15.0614385 163.97502,14.9243662 164.363425,14.6506056 C164.75183,14.3768451 164.945842,14.064305 164.945842,13.7118334 C164.945842,13.1719914 164.74463,12.7780527 164.341068,12.5307851 C163.937127,12.2831335 163.273239,12.0470006 162.347888,11.8220024 C161.304311,11.5593766 160.455504,11.2844642 159.799574,10.9957293 C159.144401,10.7062266 158.621476,10.3261102 158.228903,9.8534605 C157.835951,9.38119473 157.640422,8.79988549 157.640422,8.10991672 C157.640422,7.49481935 157.821931,6.91389406 158.184568,6.36598898 C158.547205,5.81846785 159.081499,5.38229394 159.788206,5.05554746 C160.494913,4.72880098 161.347509,4.56638763 162.347509,4.56638763 C163.13114,4.56638763 163.83671,4.64893815 164.461947,4.81403919 C165.087184,4.97914023 165.608973,5.20029884 166.027313,5.47789896 C166.445653,5.75549908 166.763577,6.06266381 166.98222,6.40016105 C167.201243,6.7376583 167.309996,7.06747642 167.309996,7.38999939 C167.309996,7.74208696 167.192906,8.0308218 166.959863,8.25581996 C166.72682,8.48081813 166.396013,8.59408512 165.966684,8.59408512 C165.65596,8.59408512 165.390708,8.50423944 165.172443,8.32416412 C164.954179,8.14332088 164.704842,7.87416779 164.422538,7.5144011 C164.193663,7.21453154 163.923864,6.97455909 163.612004,6.79448377 C163.30128,6.61440845 162.87915,6.52456277 162.346372,6.52456277 C161.798816,6.52456277 161.34372,6.64282119 160.980703,6.87895407 C160.617308,7.11508696 160.436558,7.40919718 160.436558,7.76205266 C160.436558,8.08457563 160.569942,8.34835334 160.836331,8.55453766 C161.102719,8.76072198 161.461567,8.93158236 161.913254,9.06673484 C162.36494,9.20188732 162.986388,9.36660441 163.778355,9.56165401 C164.718105,9.79394734 165.486578,10.0715475 166.0815,10.3940704 C166.67718,10.7165934 167.129625,11.0967097 167.435801,11.5355713 C167.74463,11.9755848 167.899234,12.4747275 167.899234,13.0372229 Z" id="Path" fill="#E95E30"></path>
                </g>
                <path d="M61.9689039,20.0819773 C59.7444662,16.4854391 56.7008969,14.5227746 52.0054501,13.5383405 C51.9627161,9.94451634 50.8709188,7.80349824 49.7806343,5.9893324 C46.0548335,-0.216595857 37.8650304,-1.55967567 32.4813013,1.77359718 L21.0058955,9.07446118 L21.0058955,9.07446118 L7.27239429,17.7439948 L7.19978428,17.6214737 L7.25499814,17.7168541 C1.35203187,21.4405661 -2.57117732,28.7829167 1.99077298,36.481199 C5.42386465,42.1978181 13.5943808,45.4488932 20.3055115,41.1497971 C22.2565271,39.9176067 24.8073316,39.6876857 26.5257684,42.5456076 C28.004819,44.8959972 26.8808767,47.5096523 24.4427689,48.7864311 L29.4407574,57 C35.8175796,53.1060766 39.1776831,44.9382593 34.7726763,37.6017246 C30.4217488,30.3590193 21.5398815,29.6580123 16.1784649,33.1095413 C14.2278274,34.3432827 11.1596766,33.7159434 9.93060109,31.6683671 C8.34603906,28.9224978 9.64923733,26.7182805 11.7859379,25.368997 L11.7757271,25.3511617 L25.3984224,16.7490922 L25.3984224,16.7490922 L36.3784162,9.97708525 C41.6868881,6.62442615 46.4371706,13.8938844 40.8722946,17.3434748 L38.105551,19.1549266 L42.6372471,26.6965678 L47.552793,23.6575784 C52.4395974,20.5720619 57.106681,27.6961232 51.874979,31.064679 L38.9791401,39.2069065 L43.7373643,47.1273553 L58.0846469,38.2015353 C61.9496168,35.7611934 66.3432783,27.2607079 61.9689039,20.0819773 Z" id="Path" fill="#E95E30"></path>
            </g>
        </g>
    </g>
</svg>